<?xml version='1.0' encoding='utf-8'?>
<svg xmlns="http://www.w3.org/2000/svg" width="3116" height="1215" xml:space="preserve" overflow="hidden"><g transform="translate(-779 -783)"><g><path d="M711.351 335.366C708.646 450.828 614.323 543.019 498.896 543.019L498.896 660.767C678.243 660.767 824.797 517.525 829 338.125ZM330.468 0 330.468 0.175959 289.399 2.52521C188.277 15.1079 97.6093 74.0058 45.2768 163.403-14.532 265.572-15.1249 391.953 43.7223 494.679 102.569 597.405 211.858 660.767 330.195 660.767L330.195 538.684C255.586 538.684 186.682 498.735 149.58 433.969 112.477 369.202 112.852 289.521 150.56 225.106 183.555 168.743 240.719 131.609 304.474 123.675L332.083 122.096 345.092 126.473C349.91 130.25 352.66 135.675 352.643 141.367L353.135 141.368 353.135 744 474.048 744 474.048 139.761 473.859 139.761 471.258 113.615C465.665 86.1274 451.821 60.6668 431.195 40.6881 411.058 21.183 385.677 8.08797 358.338 2.73007L333.293 0.276765 333.296 0.0140912 331.601 0.110923Z" fill="#081122" fill-rule="evenodd" fill-opacity="1" transform="matrix(-1 1.22465e-16 1.22465e-16 1 1612 787)" /><path d="M99 0V742H170V434Q199 480 249.5 505.0Q300 530 367 530Q463 530 523.0 474.0Q583 418 583 305V0H512V298Q512 381 470.5 423.5Q429 466 354 466Q270 466 220.0 416.0Q170 366 170 276V0Z" fill="#081122" fill-opacity="1" transform="matrix(1 0 0 1 1717.26 1528) scale(0.55 -0.55)" /><path d="M99 0V526H167V424Q218 530 364 530V461Q359 461 355.0 461.5Q351 462 347 462Q264 462 217.0 411.5Q170 361 170 268V0Z" fill="#081122" fill-opacity="1" transform="matrix(1 0 0 1 2137.78 1528) scale(0.55 -0.55)" /><path d="M314 -5Q237 -5 176.5 29.5Q116 64 81.0 124.5Q46 185 46 263Q46 341 81.0 401.5Q116 462 176.5 496.0Q237 530 314 530Q391 530 451.0 496.0Q511 462 546.0 401.5Q581 341 581 263Q581 185 546.0 124.5Q511 64 451.0 29.5Q391 -5 314 -5ZM314 58Q370 58 414.0 83.5Q458 109 483.5 155.5Q509 202 509 263Q509 324 483.5 370.0Q458 416 414.0 442.0Q370 468 314 468Q258 468 213.5 442.0Q169 416 143.5 370.0Q118 324 118 263Q118 202 143.5 155.5Q169 109 213.5 83.5Q258 58 314 58Z" fill="#081122" fill-opacity="1" transform="matrix(1 0 0 1 2406.48 1528) scale(0.55 -0.55)" /><path d="M99 0V526H167V429Q195 477 246.5 503.5Q298 530 367 530Q463 530 523.0 474.0Q583 418 583 305V0H512V298Q512 381 470.5 423.5Q429 466 354 466Q270 466 220.0 416.0Q170 366 170 276V0Z" fill="#081122" fill-opacity="1" transform="matrix(1 0 0 1 2799.5 1528) scale(0.55 -0.55)" /><path d="M314 -5Q237 -5 176.5 29.5Q116 64 81.0 124.5Q46 185 46 263Q46 341 81.0 401.5Q116 462 176.5 496.0Q237 530 314 530Q391 530 451.0 496.0Q511 462 546.0 401.5Q581 341 581 263Q581 185 546.0 124.5Q511 64 451.0 29.5Q391 -5 314 -5ZM314 58Q370 58 414.0 83.5Q458 109 483.5 155.5Q509 202 509 263Q509 324 483.5 370.0Q458 416 414.0 442.0Q370 468 314 468Q258 468 213.5 442.0Q169 416 143.5 370.0Q118 324 118 263Q118 202 143.5 155.5Q169 109 213.5 83.5Q258 58 314 58Z" fill="#081122" fill-opacity="1" transform="matrix(1 0 0 1 3220.02 1528) scale(0.55 -0.55)" /><rect x="3501" y="1239" width="37.9998" height="289" fill="#081122" fill-opacity="1" /></g></g></svg>