<svg xmlns="http://www.w3.org/2000/svg" viewBox="0 0 1000 1000">
  <rect width="1000" height="1000" fill="#081122"/>
  <svg x="100" y="124" width="800" height="752" viewBox="0 0 835 752" preserveAspectRatio="xMidYMid meet">
    <g transform="translate(-1782 -861)"><g><path d="M710.492 334.915C707.791 450.222 613.582 542.289 498.294 542.289L498.294 659.879C677.424 659.879 823.802 516.83 828 337.67ZM330.069 0 330.069 0.175722 289.05 2.52182C188.05 15.0876 97.4916 73.9063 45.2222 163.184-14.5144 265.215-15.1067 391.426 43.6695 494.014 102.446 596.602 211.603 659.879 329.796 659.879L329.796 537.96C255.278 537.96 186.457 498.065 149.399 433.385 112.342 368.706 112.715 289.132 150.378 224.804 183.333 168.516 240.428 131.432 304.107 123.509L331.682 121.932 344.676 126.303C349.488 130.075 352.234 135.493 352.217 141.177L352.709 141.178 352.709 743 473.476 743 473.476 139.573 473.288 139.573 470.69 113.463C465.103 86.0117 451.276 60.5853 430.675 40.6334 410.562 21.1545 385.212 8.0771 357.906 2.7264L332.891 0.276393 332.894 0.0140722 331.201 0.110774Z" fill="#FFFFFF" fill-rule="evenodd" fill-opacity="1" transform="matrix(-1 1.22465e-16 1.22465e-16 1 2614 866)" /></g></g>
  </svg>
</svg>
